<svg width="199" height="62" viewBox="0 0 199 62" fill="none" xmlns="http://www.w3.org/2000/svg">
<rect x="0.785706" width="197.429" height="62" rx="16" fill="white"/>
<path d="M72.2368 18.1995C72.2587 18.6889 72.1813 19.1776 72.0093 19.6363C71.8373 20.0951 71.5742 20.5142 71.2359 20.8685C70.8568 21.2599 70.3993 21.5669 69.8933 21.7692C69.3874 21.9716 68.8444 22.0649 68.2999 22.0429C67.7523 22.0551 67.208 21.9548 66.7007 21.7482C66.1934 21.5416 65.7339 21.2331 65.3506 20.8418C64.573 20.0464 64.1376 18.9782 64.1376 17.8658C64.1376 16.7535 64.573 15.6853 65.3506 14.8898C65.9452 14.3089 66.6981 13.9166 67.5149 13.7623C68.3317 13.608 69.1759 13.6985 69.9414 14.0224C70.4226 14.2202 70.8519 14.5262 71.1959 14.9165L70.4886 15.6238C70.2235 15.3046 69.8877 15.0515 69.5078 14.8847C69.1279 14.7179 68.7143 14.642 68.2999 14.663C67.7768 14.6666 67.2626 14.7983 66.8021 15.0465C66.3417 15.2948 65.949 15.652 65.6585 16.0871C65.368 16.5221 65.1885 17.0217 65.1356 17.5421C65.0828 18.0626 65.1582 18.588 65.3553 19.0726C65.5524 19.5571 65.8652 19.9861 66.2664 20.3218C66.6675 20.6576 67.1448 20.89 67.6565 20.9987C68.1682 21.1074 68.6987 21.0891 69.2017 20.9455C69.7047 20.8018 70.1649 20.5371 70.5419 20.1746C70.9496 19.7276 71.1859 19.1509 71.2092 18.5464H68.2999V17.5856H72.1834C72.2138 17.7889 72.2316 17.9939 72.2368 18.1995Z" fill="black" stroke="black" stroke-width="0.278932" stroke-miterlimit="10"/>
<path d="M78.3489 14.8635H74.7456V17.3991H78.0286V18.36H74.7456V20.8956H78.3489V21.8831H73.7047V13.876H78.3489V14.8635Z" fill="black" stroke="black" stroke-width="0.278932" stroke-miterlimit="10"/>
<path d="M82.7262 21.8831H81.6986V14.8635H79.4566V13.876H85.0215V14.8635H82.7262V21.8831Z" fill="black" stroke="black" stroke-width="0.278932" stroke-miterlimit="10"/>
<path d="M88.9451 21.8831V13.876H89.9726V21.8831H88.9451Z" fill="black" stroke="black" stroke-width="0.278932" stroke-miterlimit="10"/>
<path d="M94.5366 21.8831H93.5091V14.8635H91.2671V13.876H96.7653V14.8635H94.5366V21.8831Z" fill="black" stroke="black" stroke-width="0.278932" stroke-miterlimit="10"/>
<path d="M107.188 20.8417C106.803 21.2275 106.345 21.5335 105.841 21.7423C105.338 21.9511 104.798 22.0585 104.252 22.0585C103.707 22.0585 103.167 21.9511 102.663 21.7423C102.16 21.5335 101.702 21.2275 101.316 20.8417C100.562 20.0397 100.142 18.9801 100.142 17.8791C100.142 16.778 100.562 15.7184 101.316 14.9164C101.694 14.5198 102.15 14.2068 102.655 13.9976C103.161 13.7884 103.705 13.6877 104.252 13.702C104.799 13.6934 105.341 13.7967 105.846 14.0055C106.351 14.2144 106.808 14.5244 107.188 14.9164C107.572 15.3068 107.874 15.77 108.075 16.2789C108.277 16.7877 108.375 17.3318 108.363 17.8791C108.38 18.427 108.285 18.9727 108.083 19.4823C107.881 19.9919 107.576 20.4546 107.188 20.8417ZM102.077 20.1745C102.361 20.4626 102.7 20.6913 103.073 20.8474C103.447 21.0036 103.848 21.084 104.252 21.084C104.657 21.084 105.058 21.0036 105.431 20.8474C105.805 20.6913 106.143 20.4626 106.428 20.1745C107.003 19.5487 107.323 18.7294 107.323 17.8791C107.323 17.0287 107.003 16.2094 106.428 15.5837C106.143 15.2956 105.805 15.0669 105.431 14.9107C105.058 14.7546 104.657 14.6742 104.252 14.6742C103.848 14.6742 103.447 14.7546 103.073 14.9107C102.7 15.0669 102.361 15.2956 102.077 15.5837C101.501 16.2094 101.182 17.0287 101.182 17.8791C101.182 18.7294 101.501 19.5487 102.077 20.1745Z" fill="black" stroke="black" stroke-width="0.278932" stroke-miterlimit="10"/>
<path d="M109.817 21.8831V13.876H111.058L114.955 20.1082V18.5602V13.876H115.983V21.8831H114.915L110.845 15.3573V16.892V21.8831H109.817Z" fill="black" stroke="black" stroke-width="0.278932" stroke-miterlimit="10"/>
<path d="M99.8882 33.5602C98.7638 33.5628 97.6654 33.8988 96.732 34.5257C95.7985 35.1526 95.072 36.0422 94.6441 37.082C94.2163 38.1218 94.1064 39.2652 94.3283 40.3674C94.5503 41.4697 95.0941 42.4814 95.891 43.2746C96.688 44.0678 97.7022 44.6069 98.8055 44.8237C99.9088 45.0404 101.052 44.9252 102.089 44.4924C103.127 44.0597 104.013 43.329 104.636 42.3926C105.258 41.4562 105.589 40.3563 105.587 39.2319C105.597 38.4818 105.457 37.7372 105.174 37.0424C104.892 36.3476 104.472 35.7168 103.94 35.1876C103.408 34.6584 102.776 34.2416 102.08 33.962C101.383 33.6825 100.638 33.5458 99.8882 33.5602ZM99.8882 42.675C99.199 42.7232 98.5113 42.5629 97.9144 42.2151C97.3175 41.8672 96.839 41.3479 96.5412 40.7245C96.2434 40.1011 96.14 39.4026 96.2445 38.7197C96.3489 38.0367 96.6564 37.4011 97.127 36.8952C97.5975 36.3894 98.2094 36.0368 98.883 35.8833C99.5566 35.7298 100.261 35.7825 100.904 36.0345C101.547 36.2865 102.1 36.7262 102.49 37.2965C102.88 37.8667 103.089 38.5411 103.091 39.2319C103.113 39.6697 103.046 40.1073 102.896 40.519C102.745 40.9306 102.514 41.3081 102.216 41.629C101.917 41.9499 101.558 42.2077 101.158 42.3874C100.758 42.567 100.326 42.6648 99.8882 42.675ZM87.4504 33.5602C86.326 33.5628 85.2276 33.8988 84.2942 34.5257C83.3608 35.1526 82.6342 36.0422 82.2063 37.082C81.7785 38.1218 81.6686 39.2652 81.8906 40.3674C82.1125 41.4697 82.6563 42.4814 83.4533 43.2746C84.2502 44.0678 85.2644 44.6069 86.3678 44.8237C87.4711 45.0404 88.6139 44.9252 89.6517 44.4924C90.6895 44.0597 91.5756 43.329 92.1981 42.3926C92.8206 41.4562 93.1515 40.3563 93.1488 39.2319C93.1597 38.4818 93.0195 37.7372 92.7367 37.0424C92.4538 36.3476 92.034 35.7168 91.5024 35.1876C90.9707 34.6584 90.3379 34.2416 89.6418 33.962C88.9457 33.6825 88.2004 33.5458 87.4504 33.5602ZM87.4504 42.675C86.7612 42.7232 86.0735 42.5629 85.4766 42.2151C84.8797 41.8672 84.4012 41.3479 84.1034 40.7245C83.8056 40.1011 83.7023 39.4026 83.8067 38.7197C83.9112 38.0367 84.2187 37.4011 84.6892 36.8952C85.1598 36.3894 85.7716 36.0368 86.4452 35.8833C87.1188 35.7298 87.823 35.7825 88.4662 36.0345C89.1095 36.2865 89.662 36.7262 90.0521 37.2965C90.4421 37.8667 90.6516 38.5411 90.6533 39.2319C90.6748 39.6697 90.6084 40.1073 90.4581 40.519C90.3077 40.9306 90.0765 41.3081 89.778 41.629C89.4795 41.9499 89.1198 42.2077 88.72 42.3874C88.3202 42.567 87.8886 42.6648 87.4504 42.675ZM72.6639 35.3084V37.7106H78.429C78.3386 38.842 77.8683 39.9096 77.0945 40.7399C76.5162 41.3291 75.8206 41.7904 75.0528 42.0938C74.285 42.3973 73.4621 42.5362 72.6372 42.5015C70.9383 42.5015 69.309 41.8266 68.1077 40.6253C66.9064 39.424 66.2315 37.7947 66.2315 36.0958C66.2315 34.3969 66.9064 32.7676 68.1077 31.5663C69.309 30.365 70.9383 29.6901 72.6372 29.6901C74.2659 29.6658 75.8386 30.2844 77.0144 31.4116L78.7093 29.7168C77.9139 28.9301 76.9695 28.31 75.9314 27.893C74.8933 27.4759 73.7825 27.2702 72.6639 27.2879C71.4775 27.2418 70.294 27.4356 69.1843 27.8577C68.0746 28.2799 67.0615 28.9217 66.2058 29.7448C65.3501 30.5679 64.6693 31.5552 64.2043 32.6476C63.7393 33.7401 63.4996 34.9152 63.4996 36.1025C63.4996 37.2897 63.7393 38.4648 64.2043 39.5573C64.6693 40.6497 65.3501 41.6371 66.2058 42.4601C67.0615 43.2832 68.0746 43.925 69.1843 44.3472C70.294 44.7694 71.4775 44.9632 72.6639 44.917C73.8055 44.9626 74.9438 44.7662 76.0041 44.3407C77.0644 43.9152 78.0227 43.2702 78.816 42.4481C80.2174 40.9086 80.9642 38.8838 80.8979 36.8031C80.9027 36.3023 80.8625 35.802 80.7778 35.3084H72.6639ZM133.131 37.1767C132.783 36.1528 132.132 35.2587 131.265 34.6129C130.397 33.9671 129.354 33.6 128.273 33.5602C127.544 33.5588 126.821 33.7071 126.151 33.996C125.48 34.2848 124.876 34.7082 124.376 35.2397C123.876 35.7713 123.49 36.3999 123.242 37.0865C122.994 37.7732 122.89 38.5034 122.935 39.2319C122.924 40.4501 123.307 41.6394 124.027 42.622C124.747 43.6046 125.766 44.3278 126.931 44.6836C128.096 45.0395 129.345 45.0089 130.492 44.5963C131.638 44.1838 132.62 43.4115 133.291 42.3947L131.356 41.0602C131.068 41.541 130.659 41.938 130.169 42.2119C129.68 42.4858 129.128 42.6271 128.567 42.6216C127.989 42.6455 127.417 42.4938 126.926 42.1866C126.435 41.8793 126.049 41.4309 125.818 40.9001L133.411 37.7639L133.131 37.1767ZM125.391 39.0718C125.364 38.6572 125.42 38.2415 125.555 37.8488C125.691 37.4562 125.904 37.0945 126.181 36.7851C126.458 36.4756 126.794 36.2246 127.169 36.0467C127.545 35.8687 127.952 35.7675 128.367 35.7488C128.797 35.7226 129.225 35.8238 129.598 36.0398C129.97 36.2558 130.271 36.5771 130.462 36.9632L125.391 39.0718ZM119.225 44.57H121.721V27.8885H119.225V44.57ZM115.142 34.828H115.048C114.676 34.4034 114.215 34.0644 113.7 33.834C113.184 33.6037 112.624 33.4875 112.059 33.4935C110.601 33.5642 109.225 34.1933 108.218 35.2505C107.211 36.3076 106.649 37.7118 106.649 39.1719C106.649 40.632 107.211 42.0361 108.218 43.0932C109.225 44.1504 110.601 44.7795 112.059 44.8503C112.625 44.8616 113.186 44.7479 113.703 44.5172C114.22 44.2865 114.679 43.9445 115.048 43.5157H115.142V44.3298C115.142 46.5051 113.981 47.6661 112.112 47.6661C111.488 47.6524 110.882 47.4535 110.371 47.0947C109.861 46.7359 109.468 46.2334 109.243 45.651L107.081 46.5451C107.481 47.549 108.176 48.408 109.074 49.0084C109.973 49.6089 111.032 49.9226 112.112 49.9081C115.035 49.9081 117.451 48.1866 117.451 43.9962V33.8938H115.142V34.828ZM112.273 42.675C111.398 42.6205 110.577 42.2347 109.978 41.5962C109.378 40.9578 109.044 40.1147 109.044 39.2386C109.044 38.3625 109.378 37.5194 109.978 36.8809C110.577 36.2425 111.398 35.8567 112.273 35.8022C112.7 35.8206 113.119 35.9248 113.505 36.1086C113.892 36.2924 114.237 36.5521 114.521 36.872C114.805 37.192 115.021 37.5659 115.158 37.9713C115.294 38.3767 115.348 38.8054 115.315 39.2319C115.352 39.6599 115.301 40.0908 115.166 40.4986C115.031 40.9064 114.815 41.2826 114.531 41.6044C114.246 41.9263 113.899 42.1871 113.511 42.3711C113.123 42.5551 112.702 42.6585 112.273 42.675ZM144.822 27.8885H138.843V44.57H141.338V38.2444H144.822C145.533 38.2955 146.247 38.1995 146.919 37.9624C147.592 37.7254 148.208 37.3523 148.73 36.8665C149.252 36.3806 149.669 35.7925 149.953 35.1387C150.238 34.4849 150.385 33.7795 150.385 33.0664C150.385 32.3533 150.238 31.6479 149.953 30.9941C149.669 30.3403 149.252 29.7522 148.73 29.2664C148.208 28.7805 147.592 28.4075 146.919 28.1704C146.247 27.9333 145.533 27.8374 144.822 27.8885ZM144.822 35.8956H141.338V30.2105H144.875C145.25 30.2105 145.621 30.2844 145.968 30.4279C146.314 30.5714 146.629 30.7818 146.894 31.047C147.16 31.3122 147.37 31.627 147.513 31.9735C147.657 32.32 147.731 32.6914 147.731 33.0664C147.731 33.4415 147.657 33.8128 147.513 34.1593C147.37 34.5058 147.16 34.8206 146.894 35.0858C146.629 35.351 146.314 35.5614 145.968 35.7049C145.621 35.8484 145.25 35.9223 144.875 35.9223L144.822 35.8956ZM160.222 33.5068C159.313 33.4508 158.408 33.6623 157.618 34.1154C156.828 34.5684 156.189 35.243 155.778 36.0557L157.98 36.9766C158.202 36.5754 158.536 36.2473 158.941 36.0318C159.346 35.8163 159.805 35.7226 160.262 35.7622C160.579 35.7252 160.9 35.7516 161.206 35.84C161.513 35.9284 161.799 36.0769 162.047 36.2769C162.295 36.4769 162.502 36.7244 162.653 37.0049C162.805 37.2854 162.9 37.5933 162.931 37.9107V38.0709C162.129 37.6491 161.235 37.4292 160.329 37.4303C157.953 37.4303 155.524 38.7648 155.524 41.1937C155.548 41.7099 155.675 42.2162 155.898 42.6824C156.121 43.1486 156.435 43.5652 156.822 43.9076C157.21 44.2499 157.662 44.5109 158.152 44.6752C158.642 44.8394 159.16 44.9035 159.675 44.8636C160.301 44.8982 160.925 44.7657 161.483 44.4796C162.042 44.1935 162.514 43.7641 162.851 43.2355H162.931V44.57H165.333V38.1509C165.333 35.2283 163.118 33.5335 160.275 33.5335L160.222 33.5068ZM159.915 42.6483C159.101 42.6483 157.967 42.2346 157.967 41.2337C157.967 39.8992 159.381 39.4454 160.636 39.4454C161.428 39.4259 162.212 39.6194 162.904 40.0059C162.821 40.7307 162.477 41.4005 161.937 41.8912C161.397 42.382 160.698 42.6604 159.968 42.675L159.915 42.6483ZM174.088 33.8938L171.232 41.1269H171.152L168.189 33.8938H165.52L169.964 44.0095L167.428 49.6279H170.031L176.864 33.8938H174.088ZM151.668 44.57H154.15V27.8885H151.668V44.57Z" fill="black"/>
<path d="M22.8861 14.5959C22.4463 15.1158 22.2219 15.7842 22.2589 16.4642V45.9839C22.2134 46.665 22.4389 47.3365 22.8861 47.8522L22.9795 47.959L39.5142 31.4242V31.0238L22.9795 14.5024L22.8861 14.5959Z" fill="url(#paint0_linear_164_20699)"/>
<path d="M44.9858 36.9362L39.5142 31.4246V31.0243L44.9858 25.5127L45.1059 25.5928L51.6584 29.3027C53.5267 30.357 53.5267 32.0919 51.6584 33.1595L45.1326 36.8695L44.9858 36.9362Z" fill="url(#paint1_linear_164_20699)"/>
<path d="M45.146 36.8563L39.5143 31.2246L22.8861 47.8528C23.2632 48.1884 23.7459 48.3816 24.2505 48.3986C24.7551 48.4157 25.2497 48.2556 25.6486 47.9462L45.146 36.8563Z" fill="url(#paint2_linear_164_20699)"/>
<path d="M45.146 25.5932L25.6486 14.5167C25.2523 14.2029 24.758 14.039 24.2528 14.0536C23.7475 14.0683 23.2636 14.2606 22.8861 14.5967L39.5143 31.2249L45.146 25.5932Z" fill="url(#paint3_linear_164_20699)"/>
<path opacity="0.2" d="M44.9858 36.7358L25.6486 47.7457C25.2642 48.0358 24.7957 48.1927 24.3141 48.1927C23.8325 48.1927 23.364 48.0358 22.9796 47.7457L22.8861 47.8391L22.9796 47.9458C23.364 48.236 23.8325 48.3929 24.3141 48.3929C24.7957 48.3929 25.2642 48.236 25.6486 47.9458L45.146 36.8559L44.9858 36.7358Z" fill="black"/>
<path opacity="0.12" d="M22.8861 47.6663C22.4574 47.137 22.2473 46.4638 22.2989 45.7847V45.9848C22.2535 46.666 22.4789 47.3374 22.9261 47.8532L23.0195 47.7598L22.8861 47.6663Z" fill="black"/>
<path opacity="0.12" d="M51.6584 32.9595L44.9858 36.7362L45.1059 36.8563L51.6584 33.1463C52.0452 32.9828 52.3807 32.718 52.6297 32.3798C52.8786 32.0416 53.0318 31.6425 53.073 31.2246C52.9896 31.6044 52.8181 31.9592 52.5724 32.2606C52.3267 32.5619 52.0136 32.8013 51.6584 32.9595Z" fill="black"/>
<path opacity="0.25" d="M25.6485 14.703L51.6584 29.4896C52.0136 29.6477 52.3266 29.8871 52.5723 30.1885C52.8181 30.4898 52.9895 30.8447 53.073 31.2244C53.0317 30.8065 52.8786 30.4075 52.6296 30.0693C52.3807 29.7311 52.0452 29.4663 51.6584 29.3027L25.6485 14.5162C23.7935 13.4486 22.2588 14.3294 22.2588 16.4646V16.6648C22.2989 14.5295 23.7935 13.6488 25.6485 14.703Z" fill="white"/>
<defs>
<linearGradient id="paint0_linear_164_20699" x1="38.0463" y1="16.1573" x2="15.653" y2="38.5506" gradientUnits="userSpaceOnUse">
<stop stop-color="#00A0FF"/>
<stop offset="0.01" stop-color="#00A1FF"/>
<stop offset="0.26" stop-color="#00BEFF"/>
<stop offset="0.51" stop-color="#00D2FF"/>
<stop offset="0.76" stop-color="#00DFFF"/>
<stop offset="1" stop-color="#00E3FF"/>
</linearGradient>
<linearGradient id="paint1_linear_164_20699" x1="54.1006" y1="31.2245" x2="21.8184" y2="31.2245" gradientUnits="userSpaceOnUse">
<stop stop-color="#FFE000"/>
<stop offset="0.41" stop-color="#FFBD00"/>
<stop offset="0.78" stop-color="#FFA500"/>
<stop offset="1" stop-color="#FF9C00"/>
</linearGradient>
<linearGradient id="paint2_linear_164_20699" x1="42.0899" y1="34.294" x2="11.7162" y2="64.6544" gradientUnits="userSpaceOnUse">
<stop stop-color="#FF3A44"/>
<stop offset="1" stop-color="#C31162"/>
</linearGradient>
<linearGradient id="paint3_linear_164_20699" x1="18.6957" y1="4.77465" x2="32.2545" y2="18.3334" gradientUnits="userSpaceOnUse">
<stop stop-color="#32A071"/>
<stop offset="0.07" stop-color="#2DA771"/>
<stop offset="0.48" stop-color="#15CF74"/>
<stop offset="0.8" stop-color="#06E775"/>
<stop offset="1" stop-color="#00F076"/>
</linearGradient>
</defs>
</svg>
