<svg width="198" height="63" viewBox="0 0 198 63" fill="none" xmlns="http://www.w3.org/2000/svg">
<rect x="0.785706" width="197" height="62.4987" rx="16" fill="white"/>
<path d="M47.2702 30.0791C47.287 28.776 47.6341 27.4984 48.2791 26.3651C48.9242 25.2318 49.8462 24.2796 50.9594 23.5971C50.2522 22.5899 49.3193 21.7611 48.2346 21.1763C47.15 20.5916 45.9436 20.2671 44.7112 20.2287C42.0823 19.9535 39.5337 21.7974 38.194 21.7974C36.8285 21.7974 34.7659 20.256 32.5449 20.3016C31.1082 20.3479 29.7081 20.7644 28.4809 21.5108C27.2537 22.2571 26.2414 23.3077 25.5424 24.5602C22.5148 29.7875 24.7731 37.47 27.6734 41.6954C29.1245 43.7644 30.8204 46.0756 33.0394 45.9937C35.2109 45.9038 36.0219 44.6129 38.6431 44.6129C41.2399 44.6129 42.0008 45.9937 44.2648 45.9416C46.5949 45.9038 48.063 43.8633 49.4632 41.7747C50.5058 40.3004 51.3081 38.671 51.8403 36.9468C50.4866 36.3759 49.3314 35.4202 48.5187 34.1989C47.706 32.9776 47.2718 31.5448 47.2702 30.0791Z" fill="black"/>
<path d="M42.9937 17.4494C44.2642 15.9285 44.8901 13.9737 44.7386 12C42.7976 12.2033 41.0046 13.1284 39.717 14.5909C39.0875 15.3054 38.6053 16.1366 38.2981 17.037C37.9908 17.9374 37.8646 18.8894 37.9265 19.8385C38.8974 19.8484 39.8578 19.6386 40.7355 19.2248C41.6133 18.8109 42.3854 18.2039 42.9937 17.4494Z" fill="black"/>
<path d="M73.3223 40.963H66.1963L64.4851 46.0018H61.4668L68.2164 27.3594H71.3522L78.1018 46.0018H75.0321L73.3223 40.963ZM66.9344 38.6378H72.5829L69.7983 30.4601H69.7204L66.9344 38.6378Z" fill="black"/>
<path d="M92.6786 39.207C92.6786 43.4307 90.4116 46.1444 86.9905 46.1444C86.1239 46.1896 85.262 45.9905 84.5036 45.57C83.7451 45.1494 83.1208 44.5244 82.702 43.7664H82.6373V50.4986H79.8395V32.4103H82.5476V34.671H82.5991C83.0371 33.9167 83.672 33.2949 84.4362 32.8718C85.2004 32.4486 86.0654 32.24 86.939 32.2681C90.3984 32.2681 92.6786 34.995 92.6786 39.207ZM89.803 39.207C89.803 36.4552 88.3769 34.6461 86.201 34.6461C84.0634 34.6461 82.6256 36.4933 82.6256 39.207C82.6256 41.9456 84.0634 43.7797 86.201 43.7797C88.3769 43.7797 89.8029 41.9837 89.8029 39.207H89.803Z" fill="black"/>
<path d="M107.681 39.207C107.681 43.4307 105.413 46.1444 101.992 46.1444C101.126 46.1896 100.264 45.9905 99.5052 45.57C98.7468 45.1494 98.1224 44.5244 97.7037 43.7664H97.6389V50.4986H94.8412V32.4103H97.5492V34.671H97.6007C98.0387 33.9167 98.6736 33.2949 99.4378 32.8718C100.202 32.4486 101.067 32.24 101.941 32.2681C105.4 32.2681 107.681 34.995 107.681 39.207ZM104.805 39.207C104.805 36.4552 103.379 34.6461 101.203 34.6461C99.065 34.6461 97.6272 36.4933 97.6272 39.207C97.6272 41.9456 99.065 43.7797 101.203 43.7797C103.379 43.7797 104.805 41.9837 104.805 39.207Z" fill="black"/>
<path d="M117.594 40.8079C117.802 42.6566 119.603 43.8704 122.064 43.8704C124.422 43.8704 126.118 42.6565 126.118 40.9896C126.118 39.5426 125.095 38.6762 122.672 38.0824L120.25 37.5004C116.817 36.6735 115.223 35.0726 115.223 32.4747C115.223 29.2582 118.034 27.0488 122.024 27.0488C125.976 27.0488 128.684 29.2582 128.775 32.4747H125.951C125.782 30.6143 124.24 29.4913 121.986 29.4913C119.732 29.4913 118.19 30.6275 118.19 32.2812C118.19 33.5992 119.175 34.3747 121.584 34.9684L123.644 35.4728C127.48 36.3773 129.072 37.9138 129.072 40.6406C129.072 44.1284 126.288 46.3128 121.856 46.3128C117.71 46.3128 114.911 44.1797 114.73 40.8077L117.594 40.8079Z" fill="black"/>
<path d="M135.113 29.1938V32.4104H137.705V34.6197H135.113V42.1128C135.113 43.2768 135.632 43.8193 136.771 43.8193C137.079 43.8139 137.386 43.7924 137.692 43.7547V45.9509C137.179 46.0463 136.659 46.0896 136.138 46.0799C133.378 46.0799 132.302 45.0463 132.302 42.4103V34.6197H130.32V32.4104H132.302V29.1938H135.113Z" fill="black"/>
<path d="M139.205 39.2069C139.205 34.9305 141.73 32.2432 145.669 32.2432C149.621 32.2432 152.135 34.9304 152.135 39.2069C152.135 43.4952 149.634 46.1707 145.669 46.1707C141.705 46.1707 139.205 43.4952 139.205 39.2069ZM149.284 39.2069C149.284 36.2734 147.936 34.5419 145.669 34.5419C143.402 34.5419 142.054 36.2866 142.054 39.2069C142.054 42.1523 143.402 43.8705 145.669 43.8705C147.936 43.8705 149.284 42.1523 149.284 39.2069H149.284Z" fill="black"/>
<path d="M154.441 32.4102H157.11V34.7236H157.175C157.355 34.0011 157.78 33.3626 158.377 32.9154C158.974 32.4682 159.707 32.2396 160.453 32.268C160.775 32.2669 161.097 32.3018 161.412 32.3721V34.9817C161.005 34.8576 160.58 34.8007 160.155 34.8131C159.748 34.7966 159.343 34.8681 158.967 35.0226C158.591 35.177 158.253 35.4108 157.976 35.7079C157.699 36.005 157.489 36.3583 157.362 36.7436C157.235 37.129 157.193 37.5371 157.239 37.9402V46.002H154.441L154.441 32.4102Z" fill="black"/>
<path d="M174.311 42.0101C173.934 44.4774 171.525 46.1707 168.442 46.1707C164.477 46.1707 162.016 43.5216 162.016 39.2715C162.016 35.0082 164.49 32.2432 168.324 32.2432C172.095 32.2432 174.467 34.8264 174.467 38.9475V39.9033H164.84V40.0719C164.795 40.5721 164.858 41.0761 165.024 41.5502C165.19 42.0244 165.455 42.4579 165.802 42.822C166.149 43.1861 166.569 43.4725 167.036 43.6621C167.502 43.8518 168.003 43.9403 168.507 43.9218C169.168 43.9836 169.831 43.8309 170.398 43.4864C170.965 43.142 171.406 42.6242 171.654 42.01L174.311 42.0101ZM164.853 37.9535H171.667C171.693 37.5037 171.624 37.0536 171.467 36.6314C171.309 36.2093 171.066 35.8242 170.752 35.5002C170.438 35.1763 170.06 34.9206 169.642 34.7491C169.225 34.5777 168.776 34.4942 168.324 34.5038C167.869 34.5011 167.417 34.5884 166.995 34.7607C166.574 34.9329 166.191 35.1867 165.868 35.5074C165.545 35.8282 165.289 36.2094 165.115 36.6293C164.941 37.0491 164.852 37.4991 164.853 37.9535V37.9535Z" fill="black"/>
<path d="M66.5843 13.3271C67.1709 13.2851 67.7595 13.3734 68.3076 13.5858C68.8558 13.7981 69.3499 14.1291 69.7542 14.5549C70.1585 14.9807 70.4631 15.4906 70.6458 16.048C70.8286 16.6054 70.8851 17.1963 70.8111 17.778C70.8111 20.6398 69.2601 22.2848 66.5843 22.2848H63.3397V13.3271H66.5843ZM64.7348 21.0179H66.4285C66.8476 21.0429 67.2671 20.9744 67.6563 20.8173C68.0455 20.6603 68.3947 20.4187 68.6785 20.1101C68.9622 19.8015 69.1734 19.4336 69.2967 19.0334C69.4199 18.6331 69.4521 18.2105 69.3909 17.7963C69.4477 17.3837 69.4122 16.9637 69.2871 16.5663C69.162 16.169 68.9502 15.8042 68.6671 15.4981C68.384 15.1919 68.0365 14.952 67.6494 14.7955C67.2624 14.639 66.8455 14.5698 66.4285 14.5929H64.7348V21.0179Z" fill="black"/>
<path d="M72.3871 18.902C72.3445 18.4578 72.3955 18.0095 72.5368 17.5861C72.678 17.1626 72.9065 16.7733 73.2075 16.443C73.5085 16.1128 73.8754 15.8489 74.2847 15.6684C74.6939 15.4878 75.1365 15.3945 75.584 15.3945C76.0316 15.3945 76.4742 15.4878 76.8834 15.6684C77.2927 15.8489 77.6596 16.1128 77.9606 16.443C78.2616 16.7733 78.49 17.1626 78.6313 17.5861C78.7726 18.0095 78.8236 18.4578 78.7809 18.902C78.8244 19.3467 78.774 19.7956 78.6331 20.2197C78.4922 20.6438 78.2639 21.0339 77.9628 21.3648C77.6617 21.6957 77.2945 21.9601 76.8849 22.141C76.4752 22.322 76.0321 22.4155 75.584 22.4155C75.136 22.4155 74.6929 22.322 74.2832 22.141C73.8735 21.9601 73.5064 21.6957 73.2053 21.3648C72.9042 21.0339 72.6759 20.6438 72.535 20.2197C72.3941 19.7956 72.3437 19.3467 72.3871 18.902ZM77.4048 18.902C77.4048 17.4367 76.7447 16.5798 75.5862 16.5798C74.4233 16.5798 73.7691 17.4367 73.7691 18.902C73.7691 20.3791 74.4234 21.2294 75.5862 21.2294C76.7448 21.2294 77.4049 20.3732 77.4049 18.902H77.4048Z" fill="black"/>
<path d="M87.2801 22.2854H85.8922L84.4911 17.3066H84.3853L82.9901 22.2854H81.6155L79.7469 15.5254H81.1039L82.3182 20.6837H82.4182L83.8119 15.5254H85.0954L86.4891 20.6837H86.595L87.8034 15.5254H89.1413L87.2801 22.2854Z" fill="black"/>
<path d="M90.7129 15.5248H92.0008V16.5987H92.1007C92.2703 16.213 92.5564 15.8897 92.919 15.6738C93.2816 15.4579 93.7028 15.3602 94.1237 15.3943C94.4536 15.3696 94.7848 15.4192 95.0928 15.5395C95.4008 15.6597 95.6777 15.8475 95.9031 16.089C96.1284 16.3304 96.2964 16.6194 96.3945 16.9344C96.4927 17.2494 96.5185 17.5823 96.4701 17.9086V22.2848H95.1322V18.2437C95.1322 17.1573 94.6589 16.6171 93.6694 16.6171C93.4455 16.6067 93.2219 16.6447 93.0141 16.7285C92.8062 16.8123 92.619 16.9399 92.4653 17.1026C92.3115 17.2654 92.1949 17.4593 92.1233 17.6712C92.0518 17.883 92.027 18.1078 92.0507 18.3301V22.2848H90.7129L90.7129 15.5248Z" fill="black"/>
<path d="M98.6018 12.8857H99.9397V22.2847H98.6018V12.8857Z" fill="black"/>
<path d="M101.799 18.9016C101.757 18.4574 101.808 18.0091 101.949 17.5857C102.09 17.1622 102.319 16.7728 102.62 16.4426C102.921 16.1123 103.288 15.8484 103.697 15.6679C104.107 15.4873 104.549 15.394 104.997 15.394C105.444 15.394 105.887 15.4873 106.296 15.6679C106.705 15.8484 107.072 16.1123 107.373 16.4426C107.674 16.7728 107.903 17.1622 108.044 17.5857C108.186 18.0091 108.237 18.4574 108.194 18.9016C108.237 19.3464 108.187 19.7952 108.046 20.2194C107.905 20.6435 107.677 21.0335 107.376 21.3644C107.074 21.6953 106.707 21.9597 106.298 22.1407C105.888 22.3216 105.445 22.4151 104.997 22.4151C104.549 22.4151 104.106 22.3216 103.696 22.1407C103.286 21.9597 102.919 21.6953 102.618 21.3644C102.317 21.0335 102.088 20.6435 101.947 20.2194C101.806 19.7952 101.756 19.3464 101.799 18.9016ZM106.817 18.9016C106.817 17.4363 106.157 16.5794 104.999 16.5794C103.836 16.5794 103.181 17.4363 103.181 18.9017C103.181 20.3787 103.836 21.229 104.999 21.229C106.157 21.229 106.817 20.3728 106.817 18.9016H106.817Z" fill="black"/>
<path d="M109.602 20.3728C109.602 19.1559 110.511 18.4544 112.124 18.3547L113.96 18.2492V17.6657C113.96 16.9517 113.487 16.5486 112.572 16.5486C111.825 16.5486 111.308 16.822 111.159 17.2999H109.864C110.001 16.1388 111.096 15.394 112.634 15.394C114.333 15.394 115.292 16.2377 115.292 17.6657V22.2845H114.004V21.3345H113.898C113.683 21.6753 113.382 21.9531 113.024 22.1396C112.666 22.326 112.265 22.4145 111.862 22.3959C111.577 22.4254 111.29 22.3951 111.018 22.307C110.746 22.2189 110.495 22.0749 110.282 21.8843C110.069 21.6937 109.899 21.4607 109.782 21.2003C109.665 20.94 109.604 20.6581 109.602 20.3728ZM113.96 19.7951V19.23L112.305 19.3355C111.371 19.3978 110.948 19.7145 110.948 20.3105C110.948 20.9189 111.477 21.2729 112.205 21.2729C112.418 21.2944 112.633 21.273 112.838 21.2098C113.043 21.1466 113.233 21.043 113.397 20.9051C113.56 20.7672 113.695 20.5979 113.791 20.4072C113.888 20.2165 113.946 20.0084 113.96 19.7951Z" fill="black"/>
<path d="M117.05 18.9017C117.05 16.7657 118.151 15.4125 119.864 15.4125C120.288 15.3931 120.708 15.4942 121.076 15.7043C121.445 15.9143 121.745 16.2244 121.943 16.5985H122.043V12.8857H123.381V22.2847H122.099V21.2166H121.993C121.78 21.5882 121.469 21.8945 121.094 22.1024C120.718 22.3103 120.293 22.4118 119.864 22.3961C118.14 22.3961 117.05 21.0429 117.05 18.9017ZM118.432 18.9017C118.432 20.3356 119.11 21.1983 120.244 21.1983C121.371 21.1983 122.068 20.3231 122.068 18.9076C122.068 17.4987 121.364 16.611 120.244 16.611C119.117 16.611 118.432 17.4797 118.432 18.9017H118.432Z" fill="black"/>
<path d="M128.916 18.902C128.874 18.4578 128.925 18.0095 129.066 17.5861C129.207 17.1626 129.436 16.7733 129.737 16.443C130.038 16.1128 130.404 15.8489 130.814 15.6684C131.223 15.4878 131.666 15.3945 132.113 15.3945C132.561 15.3945 133.003 15.4878 133.412 15.6684C133.822 15.8489 134.189 16.1128 134.49 16.443C134.791 16.7733 135.019 17.1626 135.16 17.5861C135.302 18.0095 135.353 18.4578 135.31 18.902C135.353 19.3467 135.303 19.7956 135.162 20.2197C135.021 20.6438 134.793 21.0339 134.492 21.3648C134.191 21.6957 133.824 21.9601 133.414 22.141C133.004 22.322 132.561 22.4155 132.113 22.4155C131.665 22.4155 131.222 22.322 130.812 22.141C130.403 21.9601 130.035 21.6957 129.734 21.3648C129.433 21.0339 129.205 20.6438 129.064 20.2197C128.923 19.7956 128.873 19.3467 128.916 18.902ZM133.934 18.902C133.934 17.4367 133.274 16.5798 132.115 16.5798C130.952 16.5798 130.298 17.4367 130.298 18.902C130.298 20.3791 130.952 21.2294 132.115 21.2294C133.274 21.2294 133.934 20.3732 133.934 18.902Z" fill="black"/>
<path d="M137.105 15.5248H138.393V16.5987H138.493C138.662 16.213 138.949 15.8897 139.311 15.6738C139.674 15.4579 140.095 15.3602 140.516 15.3943C140.846 15.3696 141.177 15.4192 141.485 15.5395C141.793 15.6597 142.07 15.8475 142.295 16.089C142.521 16.3304 142.689 16.6194 142.787 16.9344C142.885 17.2494 142.911 17.5823 142.862 17.9086V22.2848H141.524V18.2437C141.524 17.1573 141.051 16.6171 140.062 16.6171C139.838 16.6067 139.614 16.6447 139.406 16.7285C139.198 16.8123 139.011 16.9399 138.857 17.1026C138.704 17.2654 138.587 17.4593 138.515 17.6712C138.444 17.883 138.419 18.1078 138.443 18.3301V22.2848H137.105V15.5248Z" fill="black"/>
<path d="M150.422 13.8418V15.5556H151.891V16.6794H150.422V20.1554C150.422 20.8635 150.715 21.1736 151.38 21.1736C151.551 21.173 151.721 21.1627 151.891 21.1428V22.254C151.65 22.2969 151.407 22.3197 151.163 22.3222C149.675 22.3222 149.083 21.8003 149.083 20.497V16.6793H148.006V15.5556H149.083V13.8418H150.422Z" fill="black"/>
<path d="M153.718 12.8857H155.044V16.611H155.15C155.328 16.2217 155.622 15.8965 155.992 15.6798C156.362 15.4631 156.789 15.3654 157.217 15.4C157.545 15.3822 157.873 15.4369 158.178 15.56C158.482 15.6832 158.756 15.8719 158.979 16.1126C159.202 16.3533 159.369 16.6401 159.468 16.9526C159.567 17.265 159.595 17.5954 159.552 17.9202V22.2847H158.212V18.2493C158.212 17.1696 157.708 16.6227 156.763 16.6227C156.533 16.6039 156.302 16.6354 156.085 16.7151C155.869 16.7947 155.672 16.9206 155.51 17.0838C155.347 17.2471 155.222 17.4438 155.144 17.6601C155.066 17.8765 155.036 18.1074 155.056 18.3365V22.2846H153.718L153.718 12.8857Z" fill="black"/>
<path d="M167.352 20.4594C167.171 21.0772 166.777 21.6116 166.24 21.9692C165.703 22.3267 165.057 22.4845 164.415 22.4151C163.968 22.4269 163.525 22.3416 163.114 22.1651C162.704 21.9887 162.337 21.7253 162.039 21.3934C161.741 21.0614 161.519 20.6687 161.389 20.2426C161.258 19.8165 161.222 19.3672 161.284 18.9259C161.224 18.4832 161.261 18.0329 161.391 17.6056C161.521 17.1782 161.742 16.7837 162.038 16.4488C162.335 16.1139 162.7 15.8465 163.109 15.6645C163.518 15.4825 163.961 15.3903 164.409 15.3942C166.295 15.3942 167.433 16.6792 167.433 18.802V19.2675H162.646V19.3423C162.625 19.5903 162.657 19.84 162.738 20.0754C162.82 20.3107 162.95 20.5264 163.12 20.7088C163.289 20.8911 163.496 21.036 163.725 21.1342C163.955 21.2324 164.202 21.2816 164.452 21.2789C164.772 21.3172 165.096 21.2597 165.383 21.1138C165.67 20.9679 165.908 20.7401 166.065 20.4593L167.352 20.4594ZM162.646 18.2808H166.07C166.087 18.0539 166.056 17.8261 165.98 17.6118C165.903 17.3975 165.782 17.2017 165.625 17.0367C165.468 16.8718 165.278 16.7415 165.067 16.6542C164.856 16.5668 164.63 16.5244 164.402 16.5296C164.17 16.5267 163.941 16.57 163.726 16.657C163.512 16.744 163.317 16.8729 163.154 17.0361C162.99 17.1993 162.861 17.3935 162.774 17.6073C162.687 17.8211 162.643 18.0501 162.646 18.2808H162.646Z" fill="black"/>
</svg>
