<svg width="152" height="167" viewBox="0 0 152 167" fill="none" xmlns="http://www.w3.org/2000/svg">
<path fill-rule="evenodd" clip-rule="evenodd" d="M151.157 74.0442C151.157 116.807 119.017 156.791 75.8214 166.5C32.6256 156.791 0.485352 116.807 0.485352 74.0442V40.4538C0.485352 32.8073 5.1091 25.914 12.1907 23.023L59.2757 3.75592C69.8793 -0.585306 81.7635 -0.585306 92.3671 3.75592L139.452 23.023C146.534 25.9235 151.157 32.8073 151.157 40.4538V74.0442Z" fill="#DBE6FB"/>
<path d="M100.325 55.7195L91.5014 43.9551C89.1251 40.7868 84.6877 40.0267 81.3924 42.2235L60.8867 55.894" stroke="#3856DD" stroke-width="5.59426" stroke-linecap="round" stroke-linejoin="round"/>
<path fill-rule="evenodd" clip-rule="evenodd" d="M100.323 72.6841H109.65C111.711 72.6841 113.381 74.3545 113.381 76.4151V87.6083C113.381 89.6689 111.711 91.3394 109.65 91.3394H100.323C95.1713 91.3394 90.9951 87.1633 90.9951 82.0117V82.0117C90.9951 76.8602 95.1713 72.6841 100.323 72.6841V72.6841Z" stroke="#3856DD" stroke-width="5.59426" stroke-linecap="round" stroke-linejoin="round"/>
<path d="M76.0703 108.129H100.322C105.474 108.129 109.65 103.953 109.65 98.801V91.3389" stroke="#3856DD" stroke-width="5.59426" stroke-linecap="round" stroke-linejoin="round"/>
<circle cx="53.685" cy="96.9357" r="14.9242" stroke="#3856DD" stroke-width="5.59426" stroke-linecap="round" stroke-linejoin="round"/>
<path d="M109.649 72.6838V65.2217C109.649 60.0702 105.473 55.894 100.322 55.894H51.8179C46.6664 55.894 42.4902 60.0702 42.4902 65.2217V74.5494" stroke="#3856DD" stroke-width="5.59426" stroke-linecap="round" stroke-linejoin="round"/>
<path d="M57.4152 93.2065L49.9531 100.664" stroke="#3856DD" stroke-width="5.59426" stroke-linecap="round" stroke-linejoin="round"/>
<path d="M49.9561 93.2046L57.4138 100.667" stroke="#3856DD" stroke-width="5.59426" stroke-linecap="round" stroke-linejoin="round"/>
</svg>
