<svg width="152" height="167" viewBox="0 0 152 167" fill="none" xmlns="http://www.w3.org/2000/svg">
<path fill-rule="evenodd" clip-rule="evenodd" d="M151.157 74.0442C151.157 116.807 119.017 156.791 75.8214 166.5C32.6256 156.791 0.485352 116.807 0.485352 74.0442V40.4538C0.485352 32.8073 5.1091 25.914 12.1907 23.023L59.2757 3.75592C69.8793 -0.585306 81.7635 -0.585306 92.3671 3.75592L139.452 23.023C146.534 25.9235 151.157 32.8073 151.157 40.4538V74.0442Z" fill="#DBE6FB"/>
<path d="M78.0591 43.9678V47.6973" stroke="#3856DD" stroke-width="5.59425" stroke-linecap="round" stroke-linejoin="round"/>
<path d="M63.1406 100.593V104.323V104.36C63.1406 108.459 66.4785 111.782 70.5996 111.782V111.782C74.7207 111.782 78.0586 108.459 78.0586 104.36V76.7019" stroke="#3856DD" stroke-width="5.59425" stroke-linecap="round" stroke-linejoin="round"/>
<path fill-rule="evenodd" clip-rule="evenodd" d="M66.8702 81.1733C73.0499 75.2061 83.0674 75.2061 89.2472 81.1733C95.4269 75.2061 105.444 75.2061 111.624 81.1733C111.576 62.6787 96.5682 47.6973 78.0587 47.6973C59.5492 47.6973 44.5416 62.6787 44.4932 81.1733C50.6729 75.2061 60.6904 75.2061 66.8702 81.1733Z" stroke="#3856DD" stroke-width="5.59425" stroke-linecap="round" stroke-linejoin="round"/>
</svg>
