<svg width="152" height="167" viewBox="0 0 152 167" fill="none" xmlns="http://www.w3.org/2000/svg">
<path fill-rule="evenodd" clip-rule="evenodd" d="M151.157 74.0442C151.157 116.807 119.017 156.791 75.8214 166.5C32.6256 156.791 0.485352 116.807 0.485352 74.0442V40.4538C0.485352 32.8073 5.1091 25.914 12.1907 23.023L59.2757 3.75592C69.8793 -0.585306 81.7635 -0.585306 92.3671 3.75592L139.452 23.023C146.534 25.9235 151.157 32.8073 151.157 40.4538V74.0442Z" fill="#DBE6FB"/>
<path fill-rule="evenodd" clip-rule="evenodd" d="M83.5256 79.7367C86.2221 77.3983 87.643 73.6278 86.5801 69.6036C85.7111 66.3068 83.011 63.6141 79.7104 62.7563C73.1166 61.0407 67.1904 65.9711 67.1904 72.2852C67.1904 75.265 68.5144 77.9316 70.6029 79.7404C71.181 80.2402 71.4756 80.9898 71.263 81.7283L67.8692 93.603C67.5298 94.789 68.4249 95.9749 69.6631 95.9749H84.4617C85.6999 95.9749 86.5988 94.8076 86.2594 93.6142C85.3046 90.2725 83.5928 84.2755 82.8618 81.7171C82.6492 80.9824 82.9476 80.2365 83.5256 79.7367V79.7367Z" stroke="#3856DD" stroke-width="5.59425" stroke-linecap="round" stroke-linejoin="round"/>
<path fill-rule="evenodd" clip-rule="evenodd" d="M77.0645 112.757C95.6022 112.757 110.63 97.7297 110.63 79.192C110.63 60.6543 95.6022 45.6265 77.0645 45.6265C58.5268 45.6265 43.499 60.6543 43.499 79.192C43.499 97.7297 58.5268 112.757 77.0645 112.757Z" stroke="#3856DD" stroke-width="5.59425" stroke-linecap="round" stroke-linejoin="round"/>
</svg>
