<svg width="152" height="167" viewBox="0 0 152 167" fill="none" xmlns="http://www.w3.org/2000/svg">
<path fill-rule="evenodd" clip-rule="evenodd" d="M151.157 74.0442C151.157 116.807 119.017 156.791 75.8214 166.5C32.6256 156.791 0.485352 116.807 0.485352 74.0442V40.4538C0.485352 32.8073 5.1091 25.914 12.1907 23.023L59.2757 3.75592C69.8793 -0.585306 81.7635 -0.585306 92.3671 3.75592L139.452 23.023C146.534 25.9235 151.157 32.8073 151.157 40.4538V74.0442Z" fill="#DBE6FB"/>
<path fill-rule="evenodd" clip-rule="evenodd" d="M100.188 99.1642H96.458C94.3993 99.1642 92.7285 97.4934 92.7285 95.4347V76.7872C92.7285 74.7286 94.3993 73.0577 96.458 73.0577H100.188C104.309 73.0577 107.647 76.3956 107.647 80.5167V91.7052C107.647 95.8263 104.309 99.1642 100.188 99.1642Z" stroke="#3856DD" stroke-width="5.59425" stroke-linecap="round" stroke-linejoin="round"/>
<path fill-rule="evenodd" clip-rule="evenodd" d="M51.7041 99.1642H47.9746C43.8535 99.1642 40.5156 95.8263 40.5156 91.7052V80.5167C40.5156 76.3956 43.8535 73.0577 47.9746 73.0577H51.7041C53.7628 73.0577 55.4336 74.7286 55.4336 76.7872V95.4347C55.4336 97.4934 53.7628 99.1642 51.7041 99.1642Z" stroke="#3856DD" stroke-width="5.59425" stroke-linecap="round" stroke-linejoin="round"/>
<path d="M98.3233 73.0577V71.1929C98.3233 57.804 87.4705 46.9512 74.0816 46.9512V46.9512C60.6927 46.9512 49.8398 57.804 49.8398 71.1929V73.0577" stroke="#3856DD" stroke-width="5.59425" stroke-linecap="round" stroke-linejoin="round"/>
<path fill-rule="evenodd" clip-rule="evenodd" d="M76.4116 115.015H71.7498C69.1764 115.015 67.0879 112.926 67.0879 110.353V110.353C67.0879 107.779 69.1764 105.691 71.7498 105.691H76.4116C78.985 105.691 81.0735 107.779 81.0735 110.353V110.353C81.0735 112.926 78.985 115.015 76.4116 115.015Z" stroke="#3856DD" stroke-width="5.59425" stroke-linecap="round" stroke-linejoin="round"/>
<path d="M81.0742 110.353H88.9994C93.1205 110.353 96.4584 107.015 96.4584 102.894V99.1642" stroke="#3856DD" stroke-width="5.59425" stroke-linecap="round" stroke-linejoin="round"/>
</svg>
