<svg width="180" height="60" viewBox="0 0 180 60" fill="none" xmlns="http://www.w3.org/2000/svg">
<g clip-path="url(#clip0_1_242)">
<path d="M165.202 0H14.3025C13.752 0 13.209 0 12.6525 0C12.1935 0 11.7375 0.012 11.274 0.0195C10.2687 0.0317425 9.26581 0.120499 8.274 0.285C7.28205 0.453154 6.3212 0.770233 5.424 1.2255C4.528 1.68632 3.71002 2.28513 3 3C2.28287 3.70851 1.68469 4.52803 1.2285 5.427C0.773481 6.32404 0.457375 7.28501 0.291 8.277C0.124484 9.26861 0.0347172 10.2716 0.0225 11.277C0.009 11.736 0.0075 12.198 0 12.657V47.3385C0.0075 47.8035 0.009 48.255 0.0225 48.7215C0.0347827 49.7269 0.124549 50.7299 0.291 51.7215C0.456899 52.7136 0.773028 53.6746 1.2285 54.5715C1.6834 55.4717 2.28172 56.2919 3 57C3.70824 57.7157 4.52662 58.3133 5.424 58.77C6.32139 59.2261 7.28206 59.5451 8.274 59.7165C9.26604 59.879 10.2688 59.9673 11.274 59.9805C11.7375 59.991 12.1935 59.997 12.6525 59.997C13.2015 59.997 13.7445 59.997 14.3025 59.997H165.202C165.741 59.997 166.288 59.997 166.829 59.997C167.279 59.997 167.754 59.997 168.212 59.9805C169.217 59.9683 170.22 59.8801 171.212 59.7165C172.207 59.5437 173.171 59.2247 174.074 58.77C174.971 58.3135 175.79 57.716 176.499 57C177.213 56.2909 177.812 55.474 178.272 54.579C178.724 53.6814 179.037 52.7205 179.201 51.729C179.367 50.7372 179.46 49.7345 179.478 48.729C179.478 48.2625 179.478 47.811 179.478 47.346C179.49 46.8 179.49 46.2585 179.49 45.705V14.304C179.49 13.755 179.49 13.2105 179.478 12.666C179.478 12.207 179.478 11.745 179.478 11.286C179.46 10.2805 179.367 9.27777 179.201 8.286C179.036 7.29466 178.723 6.33381 178.272 5.436C177.345 3.63146 175.877 2.16265 174.072 1.236C173.17 0.78257 172.205 0.465613 171.21 0.2955C170.218 0.130385 169.215 0.0421223 168.21 0.0315C167.753 0.0315 167.283 0.015 166.827 0.012C166.287 0.012 165.74 0.012 165.201 0.012L165.202 0Z" fill="#A6A6A6"/>
<path d="M12.6675 58.6875C12.2175 58.6875 11.7675 58.6875 11.3175 58.671C10.3777 58.6594 9.44009 58.5776 8.51247 58.4265C7.64587 58.2768 6.80657 57.9982 6.02247 57.6C5.24512 57.2081 4.53602 56.6935 3.92247 56.076C3.305 55.4661 2.79079 54.7599 2.39996 53.985C2.00317 53.2029 1.72848 52.3647 1.58546 51.4995C1.43136 50.5697 1.34812 49.6295 1.33646 48.687C1.32596 48.3705 1.31396 47.3175 1.31396 47.3175V12.666C1.31396 12.666 1.32746 11.6295 1.33646 11.325C1.34762 10.3841 1.43036 9.44537 1.58396 8.517C1.72747 7.64931 2.00265 6.80862 2.39996 6.024C2.78996 5.2459 3.3042 4.5366 3.92247 3.924C4.53855 3.31007 5.24654 2.7959 6.02097 2.4C6.80213 2.00584 7.63789 1.7308 8.50047 1.584C9.43089 1.42992 10.3715 1.34519 11.3145 1.3305L12.6645 1.3125H166.821L168.19 1.332C169.124 1.34308 170.056 1.42431 170.977 1.575C171.849 1.72355 172.694 2.00057 173.484 2.397C175.041 3.19891 176.308 4.46832 177.106 6.027C177.497 6.80621 177.768 7.64019 177.909 8.5005C178.065 9.43638 178.152 10.3824 178.17 11.331C178.17 11.757 178.17 12.213 178.17 12.666C178.182 13.2285 178.182 13.764 178.182 14.304V45.6975C178.182 46.242 178.182 46.7745 178.17 47.31C178.17 47.7975 178.17 48.2445 178.17 48.705C178.153 49.6365 178.067 50.5656 177.913 51.4845C177.774 52.3563 177.501 53.2012 177.103 53.9895C176.299 55.5395 175.033 56.8019 173.481 57.603C172.693 58.0021 171.85 58.2797 170.979 58.4265C170.052 58.5784 169.115 58.6601 168.175 58.671C167.736 58.6815 167.275 58.6875 166.825 58.6875H165.199H12.6675Z" fill="black"/>
<path d="M37.1535 30.4502C37.1694 29.1983 37.5018 27.9707 38.1197 26.8818C38.7376 25.7929 39.6209 24.878 40.6875 24.2222C40.01 23.2543 39.1162 22.4578 38.077 21.8959C37.0377 21.334 35.8818 21.0222 34.701 20.9852C32.1825 20.7227 29.7405 22.5002 28.4565 22.5002C27.1485 22.5002 25.173 21.0197 23.0445 21.0632C21.6679 21.1075 20.3263 21.5077 19.1504 22.2248C17.9745 22.942 17.0045 23.9516 16.335 25.1552C13.434 30.1772 15.5985 37.5587 18.3765 41.6192C19.767 43.6067 21.3915 45.8282 23.5185 45.7487C25.599 45.6617 26.3685 44.4227 28.887 44.4227C31.4055 44.4227 32.1045 45.7487 34.2735 45.6992C36.507 45.6617 37.9125 43.7012 39.255 41.6942C40.2543 40.276 41.0228 38.7087 41.532 37.0502C40.2348 36.5015 39.1278 35.583 38.3492 34.4093C37.5706 33.2356 37.1547 31.8587 37.1535 30.4502Z" fill="white"/>
<path d="M33.0555 18.3166C34.2737 16.8555 34.8737 14.9768 34.728 13.0801C32.8681 13.2761 31.1502 14.165 29.916 15.5701C28.6984 16.9567 28.0812 18.7701 28.2 20.6116C29.1302 20.6212 30.0505 20.4196 30.8915 20.0221C31.7325 19.6246 32.4724 19.0414 33.0555 18.3166Z" fill="white"/>
<path d="M63.4501 40.71H56.3536L54.6481 45.75H51.6406L58.3666 27.123H61.4911L68.2156 45.75H65.1571L63.4501 40.71ZM57.0856 38.3865H62.7136L59.9386 30.216H59.8651L57.0856 38.3865Z" fill="white"/>
<path d="M82.7398 38.9552C82.7398 43.1747 80.4808 45.8867 77.0713 45.8867C76.208 45.9315 75.3495 45.7325 74.594 45.3123C73.8385 44.8921 73.2166 44.2678 72.7993 43.5107H72.7348V50.2367H69.9463V32.1647H72.6463V34.4147H72.6973C73.1342 33.6614 73.7669 33.0404 74.5283 32.6179C75.2897 32.1953 76.1514 31.9868 77.0218 32.0147C80.4673 32.0222 82.7398 34.7462 82.7398 38.9552ZM79.8748 38.9552C79.8748 36.2057 78.4528 34.3982 76.2853 34.3982C74.1553 34.3982 72.7228 36.2432 72.7228 38.9552C72.7228 41.6912 74.1553 43.5242 76.2853 43.5242C78.4498 43.5242 79.8748 41.7287 79.8748 38.9552Z" fill="white"/>
<path d="M97.6874 38.9552C97.6874 43.1747 95.4284 45.8867 92.0189 45.8867C91.1561 45.931 90.2982 45.7316 89.5433 45.3115C88.7884 44.8913 88.167 44.2673 87.7499 43.5107H87.6854V50.2367H84.8999V32.1647H87.5999V34.4147H87.6509C88.0878 33.6614 88.7205 33.0404 89.4819 32.6179C90.2434 32.1953 91.105 31.9868 91.9754 32.0147C95.4149 32.0222 97.6874 34.7462 97.6874 38.9552ZM94.8209 38.9552C94.8209 36.2057 93.4004 34.3982 91.2329 34.3982C89.1029 34.3982 87.6704 36.2432 87.6704 38.9552C87.6704 41.6912 89.1029 43.5242 91.2329 43.5242C93.4004 43.5242 94.8209 41.7242 94.8209 38.9552Z" fill="white"/>
<path d="M107.565 40.5541C107.772 42.4021 109.566 43.6141 112.018 43.6141C114.369 43.6141 116.059 42.4021 116.059 40.7356C116.059 39.2896 115.039 38.4241 112.626 37.8316L110.211 37.2496C106.791 36.4231 105.202 34.8241 105.202 32.2276C105.202 29.0146 108.003 26.8066 111.981 26.8066C115.917 26.8066 118.615 29.0146 118.705 32.2276H115.891C115.723 30.3691 114.187 29.2471 111.94 29.2471C109.693 29.2471 108.159 30.3826 108.159 32.0356C108.159 33.3511 109.14 34.1266 111.541 34.7206L113.593 35.2231C117.415 36.1231 119.002 37.6621 119.002 40.3876C119.002 43.8721 116.227 46.0546 111.813 46.0546C107.682 46.0546 104.892 43.9231 104.712 40.5541H107.565Z" fill="white"/>
<path d="M125.019 28.9502V32.1647H127.602V34.3712H125.019V41.8577C125.019 43.0217 125.537 43.5632 126.669 43.5632C126.977 43.5588 127.283 43.5378 127.589 43.5002V45.6947C127.078 45.7901 126.56 45.8333 126.041 45.8237C123.291 45.8237 122.219 44.7902 122.219 42.1577V34.3727H120.245V32.1647H122.219V28.9502H125.019Z" fill="white"/>
<path d="M129.098 38.9551C129.098 34.6816 131.615 31.9966 135.539 31.9966C139.463 31.9966 141.989 34.6816 141.989 38.9551C141.989 43.2286 139.497 45.9136 135.539 45.9136C131.58 45.9136 129.098 43.2391 129.098 38.9551ZM139.148 38.9551C139.148 36.0241 137.798 34.2931 135.548 34.2931C133.298 34.2931 131.948 36.0376 131.948 38.9551C131.948 41.8981 133.289 43.6141 135.548 43.6141C137.807 43.6141 139.148 41.8981 139.148 38.9551Z" fill="white"/>
<path d="M144.279 32.1646H146.938V34.4761H147C147.179 33.7542 147.602 33.1162 148.197 32.6693C148.792 32.2224 149.522 31.9939 150.265 32.0221C150.587 32.0205 150.907 32.0552 151.221 32.1256V34.7326C150.815 34.6094 150.392 34.5527 149.968 34.5646C149.599 34.5497 149.231 34.6078 148.884 34.7355C148.537 34.8632 148.219 35.0581 147.948 35.3089C147.677 35.5597 147.458 35.8615 147.303 36.1971C147.149 36.5327 147.062 36.8954 147.048 37.2646C147.042 37.4088 147.047 37.5532 147.063 37.6966V45.7501H144.279V32.1646Z" fill="white"/>
<path d="M164.076 41.7555C163.701 44.2215 161.301 45.9135 158.226 45.9135C154.275 45.9135 151.822 43.266 151.822 39.0135C151.822 34.761 154.288 31.9905 158.109 31.9905C161.859 31.9905 164.229 34.572 164.229 38.6895V39.645H154.636V39.813C154.554 40.7474 154.846 41.6763 155.448 42.3955C156.05 43.1147 156.913 43.5654 157.848 43.6485C157.997 43.6621 158.148 43.6656 158.298 43.659C158.956 43.7209 159.618 43.5685 160.183 43.2244C160.748 42.8804 161.187 42.3631 161.434 41.7495L164.076 41.7555ZM154.653 37.7055H161.442C161.467 37.2767 161.407 36.8473 161.266 36.4417C161.124 36.0361 160.904 35.6624 160.618 35.342C160.333 35.0215 159.986 34.7606 159.599 34.5741C159.212 34.3877 158.793 34.2794 158.364 34.2555C158.28 34.2555 158.196 34.2555 158.112 34.2555C157.66 34.2527 157.213 34.3389 156.794 34.5091C156.376 34.6794 155.996 34.9303 155.675 35.2476C155.353 35.5649 155.098 35.9423 154.922 36.3584C154.747 36.7745 154.656 37.221 154.653 37.6725V37.7055Z" fill="white"/>
<path d="M56.7388 13.0966C57.7863 13.0215 58.8207 13.3655 59.6145 14.053C60.4083 14.7405 60.8966 15.7151 60.9718 16.7626C60.9904 17.0231 60.9833 17.2849 60.9508 17.5441C60.9508 20.4031 59.4058 22.0441 56.7388 22.0441H53.5063V13.0966H56.7388ZM54.8998 20.7811H56.5873C56.9561 20.8032 57.3256 20.7525 57.6748 20.6318C58.0239 20.5111 58.3459 20.3227 58.6223 20.0776C58.8986 19.8324 59.124 19.5352 59.2854 19.2029C59.4469 18.8707 59.5414 18.5098 59.5633 18.1411C59.5751 17.9477 59.5666 17.7537 59.5378 17.5621C59.5884 17.1951 59.5661 16.8217 59.4723 16.4633C59.3785 16.105 59.215 15.7686 58.9911 15.4734C58.7673 15.1782 58.4875 14.9301 58.1677 14.7431C57.8479 14.5561 57.4944 14.4339 57.1273 14.3836C56.9484 14.3596 56.7677 14.3521 56.5873 14.3611H54.8998V20.7811Z" fill="white"/>
<path d="M62.5211 18.6659C62.4791 18.2223 62.5302 17.7748 62.6712 17.3521C62.8122 16.9294 63.0399 16.5408 63.3397 16.2112C63.6396 15.8816 64.005 15.6183 64.4125 15.4381C64.8201 15.2579 65.2608 15.1648 65.7064 15.1648C66.152 15.1648 66.5926 15.2579 67.0002 15.4381C67.4077 15.6183 67.7731 15.8816 68.073 16.2112C68.3729 16.5408 68.6006 16.9294 68.7415 17.3521C68.8825 17.7748 68.9336 18.2223 68.8916 18.6659C68.9415 19.0888 68.9065 19.5174 68.7886 19.9265C68.6708 20.3357 68.4725 20.7173 68.2054 21.0488C67.9383 21.3804 67.6077 21.6554 67.233 21.8576C66.8583 22.0599 66.447 22.1853 66.0232 22.2266C65.5994 22.2679 65.1716 22.2243 64.7649 22.0982C64.3582 21.9722 63.9807 21.7662 63.6546 21.4925C63.3285 21.2187 63.0603 20.8826 62.8656 20.5039C62.671 20.1252 62.5539 19.7115 62.5211 19.2869C62.5001 19.0805 62.5001 18.8724 62.5211 18.6659ZM67.5206 18.6659C67.5206 17.2019 66.8621 16.3469 65.7086 16.3469C64.5551 16.3469 63.8981 17.2019 63.8981 18.6659C63.8981 20.1299 64.5491 20.9999 65.7086 20.9999C66.8681 20.9999 67.5206 20.1434 67.5206 18.6734V18.6659Z" fill="white"/>
<path d="M77.3595 22.05H75.9765L74.5815 17.0745H74.475L73.086 22.05H71.7165L69.8535 15.3H71.2035L72.4125 20.454H72.513L73.905 15.3H75.183L76.572 20.454H76.677L77.877 15.3H79.2105L77.3595 22.05Z" fill="white"/>
<path d="M80.7808 15.3H82.0633V16.3725H82.1623C82.332 15.9878 82.6173 15.6655 82.9786 15.4505C83.3399 15.2354 83.7592 15.1383 84.1783 15.1725C84.466 15.1506 84.7553 15.1857 85.0295 15.2757C85.3036 15.3658 85.5574 15.509 85.7761 15.6972C85.9949 15.8855 86.1743 16.115 86.3043 16.3727C86.4342 16.6304 86.512 16.9112 86.5333 17.199C86.5466 17.3611 86.5411 17.5242 86.5168 17.685V22.05H85.1833V18.009C85.1833 16.923 84.7123 16.383 83.7253 16.383C83.5024 16.3739 83.2801 16.4128 83.0736 16.4971C82.867 16.5814 82.681 16.709 82.5281 16.8715C82.3752 17.0339 82.259 17.2273 82.1873 17.4386C82.1156 17.6498 82.0902 17.874 82.1128 18.096V22.05H80.7808V15.3Z" fill="white"/>
<path d="M88.6406 12.6555H89.9726V22.05H88.6406V12.6555Z" fill="white"/>
<path d="M91.8268 18.6659C91.7848 18.2223 91.8359 17.7748 91.9769 17.3521C92.1178 16.9294 92.3455 16.5408 92.6454 16.2112C92.9453 15.8816 93.3107 15.6183 93.7182 15.4381C94.1258 15.2579 94.5664 15.1648 95.012 15.1648C95.4576 15.1648 95.8983 15.2579 96.3059 15.4381C96.7134 15.6183 97.0788 15.8816 97.3787 16.2112C97.6785 16.5408 97.9062 16.9294 98.0472 17.3521C98.1882 17.7748 98.2393 18.2223 98.1973 18.6659C98.2471 19.0888 98.2121 19.5174 98.0943 19.9265C97.9765 20.3357 97.7782 20.7173 97.5111 21.0488C97.2439 21.3804 96.9134 21.6554 96.5386 21.8576C96.1639 22.0599 95.7526 22.1853 95.3289 22.2266C94.9051 22.2679 94.4773 22.2243 94.0706 22.0982C93.6639 21.9722 93.2864 21.7662 92.9603 21.4925C92.6342 21.2187 92.3659 20.8826 92.1713 20.5039C91.9767 20.1252 91.8595 19.7115 91.8268 19.2869C91.8058 19.0805 91.8058 18.8724 91.8268 18.6659ZM96.8263 18.6659C96.8263 17.2019 96.1678 16.3469 95.0143 16.3469C93.8608 16.3469 93.2038 17.2019 93.2038 18.6659C93.2038 20.1299 93.8548 20.9999 95.0143 20.9999C96.1738 20.9999 96.8263 20.1359 96.8263 18.6659Z" fill="white"/>
<path d="M99.5996 20.1359C99.5996 18.9209 100.5 18.2204 102.112 18.1199L103.941 18.0149V17.4314C103.941 16.7189 103.47 16.3154 102.559 16.3154C101.809 16.3154 101.299 16.5884 101.151 17.0654H99.8606C99.9971 15.9044 101.088 15.1604 102.621 15.1604C104.313 15.1604 105.268 16.0034 105.268 17.4299V22.0499H103.986V21.1004H103.879C103.665 21.4408 103.365 21.7183 103.008 21.9046C102.652 22.0909 102.253 22.1793 101.851 22.1609C101.313 22.2167 100.775 22.0566 100.354 21.7157C99.9341 21.3748 99.6665 20.881 99.6101 20.3429C99.5996 20.2724 99.5996 20.2049 99.5996 20.1359ZM103.95 19.5599V18.9944L102.3 19.1009C101.37 19.1624 100.95 19.4789 100.95 20.0744C100.95 20.6699 101.478 21.0359 102.202 21.0359C102.41 21.0571 102.62 21.037 102.821 20.9769C103.021 20.9168 103.207 20.8178 103.369 20.6856C103.531 20.5534 103.666 20.3906 103.765 20.2065C103.864 20.0223 103.926 19.8204 103.947 19.6124L103.95 19.5599Z" fill="white"/>
<path d="M107.022 18.666C107.022 16.533 108.12 15.18 109.825 15.18C110.248 15.1607 110.667 15.2619 111.033 15.4717C111.4 15.6815 111.7 15.9914 111.897 16.365H111.997V12.6555H113.329V22.05H112.05V20.982H111.943C111.731 21.3534 111.421 21.6597 111.048 21.8675C110.674 22.0753 110.25 22.1768 109.822 22.161C108.108 22.158 107.022 20.8065 107.022 18.666ZM108.399 18.666C108.399 20.1 109.074 20.961 110.199 20.961C111.324 20.961 112.017 20.0865 112.017 18.672C112.017 17.2575 111.315 16.3785 110.199 16.3785C109.083 16.3785 108.399 17.2455 108.399 18.666Z" fill="white"/>
<path d="M118.845 18.6659C118.803 18.2223 118.854 17.7748 118.995 17.3521C119.136 16.9294 119.363 16.5408 119.663 16.2112C119.963 15.8816 120.329 15.6183 120.736 15.4381C121.144 15.2579 121.584 15.1648 122.03 15.1648C122.476 15.1648 122.916 15.2579 123.324 15.4381C123.731 15.6183 124.097 15.8816 124.397 16.2112C124.696 16.5408 124.924 16.9294 125.065 17.3521C125.206 17.7748 125.257 18.2223 125.215 18.6659C125.265 19.0888 125.23 19.5174 125.112 19.9265C124.994 20.3357 124.796 20.7173 124.529 21.0488C124.262 21.3804 123.931 21.6554 123.557 21.8576C123.182 22.0599 122.771 22.1853 122.347 22.2266C121.923 22.2679 121.495 22.2243 121.089 22.0982C120.682 21.9722 120.304 21.7662 119.978 21.4925C119.652 21.2187 119.384 20.8826 119.189 20.5039C118.995 20.1252 118.877 19.7115 118.845 19.2869C118.825 19.0804 118.825 18.8725 118.845 18.6659ZM123.844 18.6659C123.844 17.2019 123.187 16.3469 122.032 16.3469C120.877 16.3469 120.222 17.2019 120.222 18.6659C120.222 20.1299 120.874 20.9999 122.032 20.9999C123.19 20.9999 123.844 20.1359 123.844 18.6659Z" fill="white"/>
<path d="M127.003 15.3H128.287V16.3725H128.386C128.556 15.9878 128.841 15.6655 129.203 15.4505C129.564 15.2354 129.983 15.1383 130.402 15.1725C130.731 15.1484 131.061 15.1983 131.367 15.3187C131.674 15.439 131.95 15.6267 132.174 15.8679C132.399 16.109 132.566 16.3975 132.664 16.712C132.762 17.0265 132.789 17.359 132.741 17.685V22.05H131.407V18.009C131.407 16.923 130.936 16.383 129.949 16.383C129.539 16.3642 129.138 16.5091 128.834 16.7859C128.53 17.0626 128.349 17.4486 128.329 17.859C128.327 17.9381 128.329 18.0172 128.337 18.096V22.05H127.003V15.3Z" fill="white"/>
<path d="M140.272 13.6111V15.3226H141.736V16.4461H140.272V19.9186C140.272 20.6266 140.565 20.9371 141.228 20.9371C141.398 20.9356 141.567 20.925 141.736 20.9056V22.0156C141.497 22.0588 141.254 22.0818 141.01 22.0846C139.528 22.0846 138.939 21.5626 138.939 20.2606V16.4461H137.866V15.3226H138.939V13.6111H140.272Z" fill="white"/>
<path d="M143.557 12.6555H144.877V16.3785H144.984C145.161 15.9894 145.453 15.6643 145.822 15.4476C146.191 15.231 146.617 15.1334 147.043 15.168C147.335 15.152 147.627 15.1937 147.903 15.2905C148.178 15.3874 148.432 15.5377 148.65 15.7327C148.867 15.9277 149.044 16.1636 149.171 16.4271C149.297 16.6905 149.37 16.9763 149.386 17.268C149.393 17.4072 149.388 17.5468 149.37 17.685V22.05H148.035V18.015C148.035 16.9365 147.532 16.389 146.59 16.389C146.173 16.355 145.759 16.4881 145.44 16.759C145.121 17.0299 144.923 17.4164 144.889 17.8335C144.882 17.9229 144.882 18.0127 144.889 18.102V22.05H143.557V12.6555Z" fill="white"/>
<path d="M157.142 20.2231C156.959 20.8395 156.567 21.3723 156.032 21.7287C155.497 22.0851 154.854 22.2424 154.215 22.1731C153.77 22.1842 153.328 22.0985 152.92 21.9219C152.512 21.7454 152.147 21.4823 151.85 21.1508C151.553 20.8193 151.332 20.4273 151.202 20.0019C151.071 19.5766 151.035 19.128 151.095 18.6871C150.985 17.8681 151.206 17.039 151.707 16.3822C152.209 15.7254 152.951 15.2947 153.77 15.1846C153.915 15.1651 154.062 15.1561 154.209 15.1576C156.089 15.1576 157.223 16.4416 157.223 18.5626V19.0276H152.453V19.1026C152.433 19.3363 152.459 19.5715 152.53 19.7949C152.602 20.0183 152.716 20.2255 152.867 20.4046C153.019 20.5837 153.204 20.7313 153.412 20.8389C153.62 20.9465 153.848 21.012 154.082 21.0316C154.139 21.0316 154.196 21.0316 154.251 21.0316C154.57 21.0696 154.893 21.012 155.179 20.8662C155.466 20.7204 155.702 20.493 155.859 20.2126L157.142 20.2231ZM152.453 18.0466H155.865C155.897 17.6164 155.757 17.191 155.476 16.8637C155.195 16.5365 154.795 16.334 154.365 16.3006C154.313 16.3006 154.26 16.3006 154.208 16.3006C153.749 16.2934 153.307 16.4684 152.978 16.7871C152.649 17.1058 152.46 17.5421 152.453 18.0001V18.0451V18.0466Z" fill="white"/>
</g>
<defs>
<clipPath id="clip0_1_242">
<rect width="179.496" height="60" fill="white"/>
</clipPath>
</defs>
</svg>
