<?xml version="1.0" encoding="utf-8"?>
<!-- Generator: Adobe Illustrator 25.4.1, SVG Export Plug-In . SVG Version: 6.00 Build 0)  -->
<svg version="1.1" id="Layer_1" xmlns="http://www.w3.org/2000/svg" xmlns:xlink="http://www.w3.org/1999/xlink" x="0px" y="0px"
	 viewBox="0 0 429 928.2" style="enable-background:new 0 0 429 928.2;" xml:space="preserve">
<style type="text/css">
	.st0{opacity:0.5;fill:#FFD8C1;enable-background:new    ;}
</style>
<path class="st0" d="M621.3,323c50.2,8.5,90.7,36.3,115.9,89.8c25.2,53.5,27.1,117,5.1,170.8c-16.2,39.7-44.9,75.2-49.1,118.1
	c-8.1,82.6,77.3,160.7,54.7,240.3c-12.6,44.3-58.7,73.8-105.4,75.4c-46.7,1.7-92.4-20.8-126.9-52.7c-34.6-32-59.4-72.9-81-114.5
	c-18.6-35.9-39.6-76.7-78.4-88.2c-27.3-8.1-56,0.9-84,4.6C161.3,781.4,44.5,700.4,16.7,591.9c-27.8-108.5,34.6-229.7,137.5-272
	c50.6-20.8,111.1-25.9,148.7-65.2c33.4-34.8,39.5-87.7,66.2-127.9c29.4-44.2,84.8-69.6,138.5-63.7c53.8,6,103.5,43.1,124.5,92.9
	C654.6,209.5,644.3,270.9,621.3,323z"/>
</svg>
