<svg width="36" height="37" viewBox="0 0 36 37" fill="none" xmlns="http://www.w3.org/2000/svg">
<path d="M18 36.2383C27.8086 36.2383 35.9297 28.0996 35.9297 18.3086C35.9297 8.5 27.791 0.378906 17.9824 0.378906C8.19141 0.378906 0.0703125 8.5 0.0703125 18.3086C0.0703125 28.0996 8.20898 36.2383 18 36.2383ZM16.0312 26.9043C15.4336 26.9043 14.9414 26.6582 14.4844 26.043L10.0723 20.6289C9.80859 20.2773 9.65039 19.8906 9.65039 19.4863C9.65039 18.6953 10.2656 18.0449 11.0566 18.0449C11.5664 18.0449 11.9531 18.2031 12.3926 18.7832L15.9609 23.3887L23.4668 11.3301C23.8008 10.8027 24.2578 10.5215 24.7148 10.5215C25.4883 10.5215 26.209 11.0488 26.209 11.875C26.209 12.2617 25.9805 12.666 25.7695 13.0352L17.5078 26.043C17.1387 26.623 16.6289 26.9043 16.0312 26.9043Z" fill="#87C647"/>
</svg>
