<svg width="328" height="794" viewBox="0 0 328 794" fill="none" xmlns="http://www.w3.org/2000/svg">
<path d="M-529.649 649.825C-574.752 628.565 -546.102 537.598 -606.612 513.894C-639.985 498.795 -680.082 501.005 -708.594 475.696C-739.903 449.174 -724.651 404.053 -697.704 379.616C-671.073 352.701 -634.029 335.431 -616.912 299.998C-602.48 275.073 -612.649 248.604 -627.432 227.383C-682.59 149.973 -639.444 29.6534 -544.459 7.06874C-449.105 -26.4279 -411.607 85.11 -326.983 71.0499C-304.582 64.2208 -283.63 52.9425 -262.317 43.5025C-237.43 32.5066 -210.917 28.3314 -184.652 24.1938C-88.1942 9.21025 35.2261 43.8815 72.8977 141.003C82.9076 171.157 104.719 195.217 134.455 206.454C189.757 232.721 260.464 239.72 297.961 293.068C350.805 365.151 330.318 477.719 253.823 527.9C195.527 564.952 143.263 569.399 132.42 650.073C127.369 716.988 108.558 774.643 35.0627 790.159C-49.5762 810.027 -121.866 747.225 -167.802 683.932C-190.358 653.043 -234.016 619.444 -270.596 653.179C-361.65 763.775 -395.925 609.459 -487.123 649.895C-501.266 657.356 -516.793 655.941 -529.649 649.825Z" fill="#FFD8C1" fill-opacity="0.5"/>
</svg>
