<svg width="124" height="31" viewBox="0 0 124 31" fill="none" xmlns="http://www.w3.org/2000/svg">
<path d="M0.48 29.8C1.49333 28.44 2 26.5467 2 24.12V7.88C2 5.45333 1.49333 3.56 0.48 2.2V2H21.16L22.24 10.28H21.84C20.8267 7.90667 19.5333 6.12 17.96 4.92C16.4133 3.72 14.2 3.12 11.32 3.12H9V15.4H11.56C13.2133 15.4 14.52 15.0133 15.48 14.24C16.4667 13.44 17.1867 12.28 17.64 10.76H18.04V21.16H17.64C17.1867 19.64 16.4667 18.4933 15.48 17.72C14.52 16.92 13.2133 16.52 11.56 16.52H9V24.12C9 26.5467 9.50667 28.44 10.52 29.8V30H0.48V29.8ZM22.5666 29.8C22.9399 29.24 23.2199 28.5333 23.4066 27.68C23.6199 26.8 23.7266 25.84 23.7266 24.8V16.96C23.7266 15.7333 23.5932 14.76 23.3266 14.04C23.0866 13.2933 22.7132 12.6533 22.2066 12.12V11.92L30.0066 9.44H30.2066V24.8C30.2066 25.84 30.2999 26.8 30.4866 27.68C30.6999 28.5333 30.9932 29.24 31.3666 29.8V30H22.5666V29.8ZM26.9666 7.32C25.9532 7.32 25.0866 6.97333 24.3666 6.28C23.6732 5.56 23.3266 4.69333 23.3266 3.68C23.3266 2.66666 23.6732 1.81333 24.3666 1.12C25.0866 0.399999 25.9532 0.0399995 26.9666 0.0399995C27.9799 0.0399995 28.8332 0.399999 29.5266 1.12C30.2466 1.81333 30.6066 2.66666 30.6066 3.68C30.6066 4.69333 30.2466 5.56 29.5266 6.28C28.8332 6.97333 27.9799 7.32 26.9666 7.32ZM33.0963 29.8C33.4696 29.24 33.7496 28.5333 33.9363 27.68C34.1496 26.8 34.2563 25.84 34.2563 24.8V16.96C34.2563 15.7333 34.1229 14.76 33.8563 14.04C33.6163 13.2933 33.2429 12.6533 32.7363 12.12V11.92L40.5363 9.44H40.7363V13.28H40.9363C41.4696 12.16 42.2696 11.24 43.3363 10.52C44.4029 9.8 45.6696 9.44 47.1363 9.44C49.0296 9.44 50.5363 10.0533 51.6563 11.28C52.8029 12.48 53.3763 14.0533 53.3763 16V24.8C53.3763 25.84 53.4696 26.8 53.6563 27.68C53.8696 28.5333 54.1629 29.24 54.5363 29.8V30H45.7363V29.8C46.1096 29.24 46.3896 28.5333 46.5763 27.68C46.7896 26.8 46.8963 25.84 46.8963 24.8V16.16C46.8963 15.2533 46.6163 14.5067 46.0563 13.92C45.5229 13.3333 44.8029 13.04 43.8963 13.04C43.0163 13.04 42.2696 13.3333 41.6563 13.92C41.0429 14.48 40.7363 15.2267 40.7363 16.16V24.8C40.7363 25.84 40.8296 26.8 41.0163 27.68C41.2296 28.5333 41.5229 29.24 41.8963 29.8V30H33.0963V29.8ZM56.5669 15.12C55.6069 12.8533 54.6202 11.2133 53.6069 10.2V10H63.8069V10.2C63.2735 10.8667 63.0069 11.68 63.0069 12.64C63.0069 13.3867 63.2069 14.24 63.6069 15.2L67.4069 24.2L70.8869 15.52C71.2335 14.6933 71.4069 13.8667 71.4069 13.04C71.4069 11.92 71.0735 10.9733 70.4069 10.2V10H75.4069V10.2C74.1269 11.4 73.0869 12.9733 72.2869 14.92L66.1269 30H62.9669L56.5669 15.12ZM92.5444 23C92.0644 25.32 90.9977 27.16 89.3444 28.52C87.7177 29.88 85.7444 30.56 83.4244 30.56C81.611 30.56 79.971 30.16 78.5044 29.36C77.0377 28.56 75.8777 27.4 75.0244 25.88C74.171 24.36 73.7444 22.5333 73.7444 20.4C73.7444 18.2667 74.1977 16.3733 75.1044 14.72C76.011 13.04 77.2377 11.7467 78.7844 10.84C80.3577 9.90667 82.0777 9.44 83.9444 9.44C85.651 9.44 87.131 9.8 88.3844 10.52C89.6644 11.2133 90.6377 12.1467 91.3044 13.32C91.971 14.4933 92.3044 15.7733 92.3044 17.16H78.9044C79.0644 19 79.5044 20.5867 80.2244 21.92C80.971 23.2267 81.9177 24.2267 83.0644 24.92C84.211 25.5867 85.4644 25.92 86.8244 25.92C87.9977 25.92 89.051 25.6667 89.9844 25.16C90.9177 24.6267 91.6377 23.9067 92.1444 23H92.5444ZM82.2644 10.56C81.171 10.56 80.331 11.0267 79.7444 11.96C79.1577 12.8667 78.8644 14.16 78.8644 15.84V16.2H86.0644C85.931 14.4933 85.531 13.1333 84.8644 12.12C84.2244 11.08 83.3577 10.56 82.2644 10.56ZM100.557 30.56C99.3305 30.56 98.0772 30.44 96.7972 30.2C95.5172 29.96 94.3305 29.6 93.2372 29.12V22.92H93.6372C94.1705 24.28 94.8639 25.4667 95.7172 26.48C96.5972 27.4933 97.5305 28.2667 98.5172 28.8C99.5039 29.3067 100.451 29.56 101.357 29.56C102.397 29.56 103.211 29.28 103.797 28.72C104.411 28.1333 104.717 27.36 104.717 26.4C104.717 25.4933 104.371 24.7867 103.677 24.28C102.984 23.7467 101.824 23.2933 100.197 22.92C97.9039 22.4133 96.1172 21.6267 94.8372 20.56C93.5572 19.4933 92.9172 18.0133 92.9172 16.12C92.9172 14.7867 93.2639 13.6133 93.9572 12.6C94.6505 11.5867 95.6105 10.8133 96.8372 10.28C98.0905 9.72 99.5039 9.44 101.077 9.44C103.077 9.44 105.291 9.92 107.717 10.88V16.8H107.317C106.597 14.96 105.557 13.44 104.197 12.24C102.837 11.04 101.491 10.44 100.157 10.44C99.2772 10.44 98.5705 10.6933 98.0372 11.2C97.5039 11.7067 97.2372 12.3733 97.2372 13.2C97.2372 14.1067 97.5839 14.8133 98.2772 15.32C98.9972 15.8267 100.171 16.2933 101.797 16.72C104.197 17.36 106.024 18.2267 107.277 19.32C108.531 20.3867 109.157 21.8933 109.157 23.84C109.157 26.1333 108.317 27.8267 106.637 28.92C104.984 30.0133 102.957 30.56 100.557 30.56ZM117.967 30.56C116.047 30.56 114.46 29.96 113.207 28.76C111.953 27.5333 111.327 25.9333 111.327 23.96V14.04C111.327 13.2933 111.153 12.68 110.807 12.2C110.487 11.6933 110.06 11.3333 109.527 11.12V10.92C110.993 10.44 112.42 9.72 113.807 8.76C115.22 7.8 116.487 6.69333 117.607 5.44H117.807V10H123.607L123.087 11.52H117.807V23.96C117.807 25.2133 118.14 26.1733 118.807 26.84C119.473 27.5067 120.287 27.84 121.247 27.84C121.807 27.84 122.3 27.7467 122.727 27.56C123.153 27.3467 123.447 27.1067 123.607 26.84L124.007 27.04C123.607 28.08 122.847 28.9333 121.727 29.6C120.633 30.24 119.38 30.56 117.967 30.56Z" fill="white"/>
</svg>
