<svg width="35" height="35" viewBox="0 0 35 35" fill="none" xmlns="http://www.w3.org/2000/svg">
<rect width="34.0999" height="34.0999" rx="17.05" fill="#E2E8F0"/>
<g clip-path="url(#clip0_743_9221)">
<g clip-path="url(#clip1_743_9221)">
<path d="M12.6531 24.8882V13.3541H9.20352V24.8882H12.6531ZM10.9288 11.7783C12.1317 11.7783 12.8805 10.8926 12.8805 9.78584C12.8581 8.65407 12.1317 7.79297 10.9516 7.79297C9.77163 7.79297 9 8.65409 9 9.78584C9 10.8927 9.74858 11.7783 10.9062 11.7783H10.9287H10.9288ZM14.5625 24.8882H18.0121V18.447C18.0121 18.1022 18.0345 17.7579 18.1256 17.5114C18.3749 16.8227 18.9425 16.1093 19.8955 16.1093C21.1437 16.1093 21.6431 17.1671 21.6431 18.7176V24.8881H25.0925V18.2745C25.0925 14.7317 23.3906 13.0833 21.121 13.0833C19.2601 13.0833 18.443 14.2393 17.9891 15.0266H18.0121V13.3538H14.5625C14.6078 14.4361 14.5625 24.8879 14.5625 24.8879L14.5625 24.8882Z" fill="#475569"/>
</g>
</g>
<defs>
<clipPath id="clip0_743_9221">
<rect width="20" height="20" fill="white" transform="translate(7.05078 7.0498)"/>
</clipPath>
<clipPath id="clip1_743_9221">
<rect width="16.0924" height="17.0952" fill="white" transform="translate(9 7.79297)"/>
</clipPath>
</defs>
</svg>
